<?xml version="1.0" standalone="no"?>
<!DOCTYPE svg PUBLIC "-//W3C//DTD SVG 20010904//EN"
 "http://www.w3.org/TR/2001/REC-SVG-20010904/DTD/svg10.dtd">
<svg version="1.0" xmlns="http://www.w3.org/2000/svg"
 width="289.000000pt" height="289.000000pt" viewBox="0 0 289.000000 289.000000"
 preserveAspectRatio="xMidYMid meet">
<metadata>
Created by potrace 1.11, written by Peter Selinger 2001-2013
</metadata>
<g transform="translate(0.000000,289.000000) scale(0.100000,-0.100000)"
fill="#000000" stroke="none">
<path d="M718 2666 c-26 -26 -51 -58 -54 -71 -9 -37 4 -90 26 -110 18 -16 20
-31 20 -154 -1 -164 -13 -266 -34 -290 -11 -12 -16 -35 -15 -72 0 -30 -3 -81
-8 -114 l-8 -60 -83 -27 c-46 -14 -89 -31 -95 -36 -7 -5 -43 -21 -82 -36 -88
-35 -175 -84 -175 -99 0 -7 4 -18 9 -26 7 -10 3 -23 -10 -39 -21 -27 -25 -52
-9 -52 6 0 32 -20 58 -44 26 -24 58 -47 72 -51 14 -4 52 -19 85 -33 33 -14 96
-35 140 -47 l80 -22 14 -64 c7 -35 22 -98 33 -139 10 -41 22 -93 27 -115 4
-22 18 -64 30 -93 11 -29 26 -74 31 -99 6 -25 23 -64 38 -87 15 -22 39 -66 52
-96 29 -65 75 -127 144 -193 103 -98 163 -132 204 -116 20 8 24 5 34 -22 10
-28 13 -30 44 -25 18 4 35 2 39 -4 3 -5 22 -10 41 -10 22 0 37 -6 40 -15 9
-22 32 -18 40 7 6 19 7 19 16 5 14 -25 35 -21 68 15 l29 33 1 -28 c0 -20 7
-30 26 -37 33 -13 34 -13 34 5 0 9 6 12 15 8 18 -6 105 24 105 37 0 4 17 6 38
3 40 -5 79 18 183 111 25 23 55 49 67 58 13 11 22 29 22 45 0 25 1 26 14 8 13
-18 15 -18 41 13 15 18 35 32 46 32 15 0 19 7 19 35 0 27 3 33 15 29 21 -9 45
14 45 42 0 21 5 24 35 24 25 0 35 4 35 15 0 9 9 29 21 44 18 25 19 31 8 50
-18 28 -35 27 -52 -6 -14 -26 -15 -26 -25 -6 -9 16 -7 29 8 59 11 21 20 53 20
71 0 31 -2 33 -35 33 -24 0 -37 -6 -45 -20 -6 -12 -21 -20 -36 -20 -14 0 -46
-14 -70 -32 -38 -27 -44 -36 -39 -57 6 -24 6 -24 -50 -17 -51 6 -89 -3 -105
-23 -3 -4 -44 -24 -92 -46 -49 -21 -88 -43 -88 -49 0 -18 -49 -42 -110 -55
-30 -7 -65 -18 -77 -26 -34 -23 -162 -55 -217 -55 -69 0 -126 31 -184 98 -63
74 -73 92 -112 187 -27 68 -33 100 -41 215 -9 123 -6 243 7 311 6 34 60 57
354 156 58 19 116 45 130 58 14 12 52 28 85 35 33 7 81 19 107 27 42 12 48 17
48 41 0 26 2 27 40 24 l40 -4 0 57 c0 31 -4 54 -9 51 -5 -4 -21 -2 -35 3 -14
6 -64 15 -112 22 -71 9 -88 9 -95 -2 -6 -10 -9 -11 -9 -1 0 7 -13 12 -29 12
-16 0 -32 -6 -35 -12 -3 -10 -8 -9 -18 3 -8 10 -36 19 -68 22 -30 3 -86 10
-125 16 -38 6 -99 11 -135 11 -104 1 -110 4 -110 63 0 38 6 60 25 87 14 20 45
94 70 165 25 71 52 136 60 144 11 11 46 17 131 21 97 5 117 8 126 23 8 15 12
16 24 6 11 -9 18 -9 26 -1 17 17 25 15 32 -10 6 -23 7 -23 22 5 15 29 28 34
39 16 4 -6 22 -8 46 -4 36 6 39 5 39 -15 0 -20 3 -22 33 -14 17 4 72 9 121 10
70 1 91 5 98 18 8 14 13 14 48 -4 51 -26 90 -26 97 0 3 11 6 20 7 20 0 0 25
-9 54 -20 29 -11 71 -20 95 -21 53 -1 71 -9 75 -34 5 -27 11 -31 26 -20 74 55
97 65 135 59 53 -8 74 21 65 89 -6 39 -11 48 -31 53 -13 4 -32 4 -43 1 -12 -3
-20 0 -20 8 0 13 -68 45 -95 45 -8 0 -15 -6 -15 -12 0 -7 -9 -2 -19 11 -15 19
-49 32 -172 64 -370 95 -486 109 -964 114 l-380 4 -47 -45z"/>
<path d="M2309 952 c-28 -25 -30 -31 -20 -50 6 -12 17 -22 24 -22 11 0 42 43
59 83 12 28 -27 21 -63 -11z"/>
<path d="M2330 830 c0 -46 12 -51 37 -14 16 25 16 27 -2 40 -29 22 -35 17 -35
-26z"/>
</g>
</svg>
